<svg viewBox="0 0 58.333333333333336 63.26229254534165"><g transform="translate(-4.624086715643976, -28.711124932461313) scale(1.5414680827614387)" fill="#00334e"><path d="M34.11588 19.73868 l6.72156 38.38854 c0.345762 1.036638 -17.11788 1.562286 -16.83504 0.506602 l1.550154 -13.63428 l-11.23824 -2.945862 c-1.056972 5.420154 -1.934064 10.9026 -2.577246 16.43274 c-0.192598 1.454178 -5.30385 1.641036 -5.710608 0.12709 c-1.025154 -6.53118 -1.749084 -13.13094 -2.200314 -19.78914 c-0.369902 -5.530134 -0.55166 -11.09898 -0.483047 -16.7346 c-0.245977 -0.087715 -0.369258 -0.182402 -0.338731 -0.284121 l0.305098 -2.000154 l0.076289 0.006973 c0.009551 -0.395332 0.016523 -0.79002 0.028594 -1.186638 l16.18872 1.43385 l0.242813 2.008416 c0.038145 0.143027 -0.223711 0.263144 -0.701016 0.36164 c-1.041678 3.42129 -1.980408 6.9087 -2.830782 10.4412 l10.76094 -1.250802 l1.331544 -11.70978 c0.181758 -1.404612 5.29365 -1.574298 5.709318 -0.171563 z"></path></g></svg>